<svg width="87" height="19" viewBox="0 0 87 19" fill="none" xmlns="http://www.w3.org/2000/svg">
<path d="M27.192 7.60279L27.042 7.60713L27.042 7.60453C27.0309 7.22154 27.012 6.56976 27.1388 5.86701C27.2659 5.16284 27.5413 4.39506 28.1286 3.79045C28.8187 3.08011 29.8035 2.72971 31.0343 2.7297L27.192 7.60279ZM27.192 7.60279L27.042 7.60713C27.0445 7.69278 27.0465 7.76346 27.0465 7.81516C27.0465 8.39629 27.1396 8.93143 27.2196 9.39209L27.2203 9.39599C27.2728 9.69795 27.3153 9.9441 27.3227 10.1343C27.3253 10.2005 27.3229 10.246 27.3194 10.2759C27.3039 10.2774 27.2843 10.2785 27.2601 10.2785C27.1569 10.2785 27.0911 10.2487 27.0254 10.1751L27.192 7.60279ZM31.3661 3.07101L31.4959 2.99588C31.5428 3.07684 31.5675 3.1687 31.5676 3.26224C31.5678 3.35554 31.5434 3.44723 31.497 3.52816C31.4766 3.56458 31.2083 4.05737 31.2198 4.70467C31.2312 5.34194 31.5134 6.15154 32.6379 6.83566C33.1194 7.12858 33.7107 7.65352 34.1825 8.33012C34.6547 9.00717 35.0143 9.84641 35.0144 10.7664C35.0144 12.1868 34.4578 13.5272 33.4484 14.5395C32.4363 15.5545 31.0928 16.1141 29.6665 16.1141C28.245 16.1141 26.9011 15.546 25.8833 14.5171C25.3946 14.023 25.0098 13.4509 24.7399 12.817L24.8775 12.7584L24.7399 12.817C24.4608 12.1611 24.319 11.471 24.319 10.7664C24.319 10.0162 24.5101 9.22123 24.8325 8.6094C25.15 8.00699 25.6235 7.53365 26.2079 7.53365H26.2079C26.2832 7.53365 26.3575 7.54957 26.4262 7.58037C26.4948 7.61116 26.5562 7.65612 26.6062 7.71231C26.6562 7.76849 26.6938 7.83463 26.7165 7.90637C26.7391 7.97804 26.7463 8.05369 26.7377 8.12835C26.7035 8.42646 26.6924 8.85259 26.735 9.25276C26.7562 9.45266 26.7905 9.64237 26.8401 9.80461L31.3661 3.07101ZM31.3661 3.07101L31.4959 2.99588C31.4491 2.91492 31.3818 2.84771 31.3007 2.80099M31.3661 3.07101L31.3007 2.80099M25.6693 9.33199C25.6871 9.50947 25.7145 9.69233 25.7554 9.87186C25.8395 10.241 25.9832 10.6087 26.2286 10.8842L26.3369 10.7878L26.2286 10.8842C26.4966 11.1851 26.8554 11.3451 27.2601 11.3451C27.6294 11.3451 27.9351 11.2321 28.1414 10.9868C28.1414 10.9868 28.1414 10.9868 28.1414 10.9868L28.0266 10.8903C28.3447 10.5121 28.2471 9.95038 28.1235 9.23918L25.6693 9.33199ZM25.6693 9.33199C25.4886 9.76211 25.3857 10.2747 25.3857 10.7664C25.3857 13.0854 27.3476 15.0474 29.6665 15.0474C32.027 15.0474 33.9477 13.1268 33.9477 10.7664C33.9477 10.09 33.6672 9.44686 33.2879 8.91205C32.9086 8.3771 32.4393 7.9634 32.0835 7.74694C30.4864 6.77527 30.1462 5.53538 30.1524 4.65783C30.1544 4.36425 30.1948 4.09463 30.2496 3.86227L25.6693 9.33199ZM31.3007 2.80099C31.2197 2.75427 31.1278 2.72969 31.0343 2.7297L31.3007 2.80099Z" fill="#717BBC" stroke="#717BBC" stroke-width="0.3"/>
<path d="M47.9962 7.42188H46.9394C46.8769 7.1179 46.7675 6.85085 46.6113 6.62074C46.4578 6.39062 46.2703 6.19744 46.0488 6.04119C45.83 5.8821 45.5871 5.76278 45.3201 5.68324C45.053 5.60369 44.7746 5.56392 44.4848 5.56392C43.9564 5.56392 43.4777 5.69744 43.0488 5.96449C42.6226 6.23153 42.2831 6.625 42.0303 7.14489C41.7803 7.66477 41.6553 8.30256 41.6553 9.05824C41.6553 9.81392 41.7803 10.4517 42.0303 10.9716C42.2831 11.4915 42.6226 11.8849 43.0488 12.152C43.4777 12.419 43.9564 12.5526 44.4848 12.5526C44.7746 12.5526 45.053 12.5128 45.3201 12.4332C45.5871 12.3537 45.83 12.2358 46.0488 12.0795C46.2703 11.9205 46.4578 11.7259 46.6113 11.4957C46.7675 11.2628 46.8769 10.9957 46.9394 10.6946H47.9962C47.9167 11.1406 47.7718 11.5398 47.5615 11.892C47.3513 12.2443 47.09 12.544 46.7775 12.7912C46.465 13.0355 46.1141 13.2216 45.7249 13.3494C45.3385 13.4773 44.9252 13.5412 44.4848 13.5412C43.7405 13.5412 43.0786 13.3594 42.499 12.9957C41.9195 12.6321 41.4635 12.1151 41.1311 11.4446C40.7988 10.7741 40.6326 9.97869 40.6326 9.05824C40.6326 8.13778 40.7988 7.34233 41.1311 6.67188C41.4635 6.00142 41.9195 5.48438 42.499 5.12074C43.0786 4.7571 43.7405 4.57528 44.4848 4.57528C44.9252 4.57528 45.3385 4.6392 45.7249 4.76705C46.1141 4.89489 46.465 5.08239 46.7775 5.32955C47.09 5.57386 47.3513 5.87216 47.5615 6.22443C47.7718 6.57386 47.9167 6.97301 47.9962 7.42188ZM51.4937 13.5753C51.0789 13.5753 50.7025 13.4972 50.3645 13.3409C50.0264 13.1818 49.7579 12.9531 49.5591 12.6548C49.3602 12.3537 49.2608 11.9901 49.2608 11.5639C49.2608 11.1889 49.3346 10.8849 49.4824 10.652C49.6301 10.4162 49.8275 10.2315 50.0747 10.098C50.3218 9.96449 50.5946 9.86506 50.8929 9.79972C51.194 9.73153 51.4966 9.67756 51.8005 9.63778C52.1983 9.58665 52.5207 9.5483 52.7679 9.52273C53.0179 9.49432 53.1997 9.44744 53.3133 9.3821C53.4298 9.31676 53.488 9.20312 53.488 9.04119V9.0071C53.488 8.58665 53.373 8.25994 53.1429 8.02699C52.9156 7.79403 52.5704 7.67756 52.1074 7.67756C51.6272 7.67756 51.2508 7.78267 50.9781 7.9929C50.7054 8.20312 50.5136 8.42756 50.4028 8.66619L49.4483 8.32528C49.6187 7.92756 49.846 7.6179 50.1301 7.39631C50.417 7.17187 50.7295 7.01562 51.0676 6.92756C51.4085 6.83665 51.7437 6.79119 52.0733 6.79119C52.2835 6.79119 52.525 6.81676 52.7977 6.8679C53.0733 6.91619 53.3389 7.01705 53.5946 7.17045C53.8531 7.32386 54.0676 7.5554 54.238 7.86506C54.4085 8.17472 54.4937 8.58949 54.4937 9.10938V13.4219H53.488V12.5355H53.4369C53.3687 12.6776 53.2551 12.8295 53.096 12.9915C52.9369 13.1534 52.7253 13.2912 52.461 13.4048C52.1968 13.5185 51.8744 13.5753 51.4937 13.5753ZM51.6471 12.6719C52.0449 12.6719 52.3801 12.5938 52.6528 12.4375C52.9284 12.2812 53.1358 12.0795 53.275 11.8324C53.417 11.5852 53.488 11.3253 53.488 11.0526V10.1321C53.4454 10.1832 53.3517 10.2301 53.2068 10.2727C53.0647 10.3125 52.9 10.348 52.7125 10.3793C52.5278 10.4077 52.3474 10.4332 52.1713 10.456C51.998 10.4759 51.8574 10.4929 51.7494 10.5071C51.488 10.5412 51.2437 10.5966 51.0164 10.6733C50.792 10.7472 50.6102 10.8594 50.471 11.0099C50.3346 11.1577 50.2664 11.3594 50.2664 11.6151C50.2664 11.9645 50.3957 12.2287 50.6542 12.4077C50.9156 12.5838 51.2466 12.6719 51.6471 12.6719ZM57.335 4.6946V13.4219H56.3293V4.6946H57.335ZM61.836 13.5582C61.2451 13.5582 60.7267 13.4176 60.2806 13.1364C59.8375 12.8551 59.4909 12.4616 59.2409 11.956C58.9937 11.4503 58.8701 10.8594 58.8701 10.1832C58.8701 9.50142 58.9937 8.90625 59.2409 8.39773C59.4909 7.8892 59.8375 7.49432 60.2806 7.21307C60.7267 6.93182 61.2451 6.79119 61.836 6.79119C62.427 6.79119 62.944 6.93182 63.3872 7.21307C63.8332 7.49432 64.1798 7.8892 64.427 8.39773C64.677 8.90625 64.802 9.50142 64.802 10.1832C64.802 10.8594 64.677 11.4503 64.427 11.956C64.1798 12.4616 63.8332 12.8551 63.3872 13.1364C62.944 13.4176 62.427 13.5582 61.836 13.5582ZM61.836 12.6548C62.2849 12.6548 62.6542 12.5398 62.944 12.3097C63.2338 12.0795 63.4483 11.777 63.5875 11.402C63.7267 11.027 63.7963 10.6207 63.7963 10.1832C63.7963 9.74574 63.7267 9.33807 63.5875 8.96023C63.4483 8.58239 63.2338 8.27699 62.944 8.04403C62.6542 7.81108 62.2849 7.6946 61.836 7.6946C61.3872 7.6946 61.0179 7.81108 60.7281 8.04403C60.4383 8.27699 60.2238 8.58239 60.0846 8.96023C59.9454 9.33807 59.8758 9.74574 59.8758 10.1832C59.8758 10.6207 59.9454 11.027 60.0846 11.402C60.2238 11.777 60.4383 12.0795 60.7281 12.3097C61.0179 12.5398 61.3872 12.6548 61.836 12.6548Z" fill="black"/>
</svg>
