<svg width="87" height="19" viewBox="0 0 87 19" fill="none" xmlns="http://www.w3.org/2000/svg">
<g clip-path="url(#clip0_1_6644)">
<path fill-rule="evenodd" clip-rule="evenodd" d="M11.8288 4.84575C10.4959 3.28747 8.27315 2.8683 6.60312 4.29522C4.93309 5.72213 4.69797 8.10786 6.00946 9.79548C7.09987 11.1986 10.3998 14.1579 11.4814 15.1158C11.6024 15.2229 11.6629 15.2765 11.7335 15.2976C11.7951 15.3159 11.8625 15.3159 11.9241 15.2976C11.9946 15.2765 12.0551 15.2229 12.1761 15.1158C13.2577 14.1579 16.5576 11.1986 17.6481 9.79548C18.9595 8.10786 18.7531 5.70712 17.0544 4.29522C15.3557 2.88331 13.1617 3.28747 11.8288 4.84575Z" stroke="#717BBC" stroke-width="1.6" stroke-linecap="round" stroke-linejoin="round"/>
</g>
<path d="M22.9155 13.4219V4.6946H23.9724V8.58097H28.6258V4.6946H29.6826V13.4219H28.6258V9.51847H23.9724V13.4219H22.9155ZM34.4063 13.5582C33.7756 13.5582 33.2316 13.419 32.7742 13.1406C32.3197 12.8594 31.9688 12.4673 31.7216 11.9645C31.4773 11.4588 31.3552 10.8707 31.3552 10.2003C31.3552 9.52983 31.4773 8.93892 31.7216 8.42756C31.9688 7.91335 32.3126 7.51278 32.7529 7.22585C33.1961 6.93608 33.7131 6.79119 34.304 6.79119C34.6449 6.79119 34.9816 6.84801 35.314 6.96165C35.6464 7.07528 35.9489 7.25994 36.2216 7.51562C36.4944 7.76847 36.7117 8.10369 36.8736 8.52131C37.0356 8.93892 37.1165 9.45312 37.1165 10.0639V10.4901H32.0711V9.62074H36.0938C36.0938 9.25142 36.0199 8.92187 35.8722 8.6321C35.7273 8.34233 35.5199 8.11364 35.2501 7.94602C34.983 7.77841 34.6677 7.6946 34.304 7.6946C33.9035 7.6946 33.5569 7.79403 33.2643 7.9929C32.9745 8.18892 32.7515 8.4446 32.5952 8.75994C32.439 9.07528 32.3608 9.41335 32.3608 9.77415V10.3537C32.3608 10.848 32.4461 11.267 32.6165 11.6108C32.7898 11.9517 33.0299 12.2116 33.3367 12.3906C33.6435 12.5668 34.0001 12.6548 34.4063 12.6548C34.6705 12.6548 34.9091 12.6179 35.1222 12.544C35.3381 12.4673 35.5242 12.3537 35.6805 12.2031C35.8367 12.0497 35.9574 11.8594 36.0427 11.6321L37.0143 11.9048C36.912 12.2344 36.7401 12.5241 36.4986 12.7741C36.2572 13.0213 35.9589 13.2145 35.6037 13.3537C35.2486 13.4901 34.8495 13.5582 34.4063 13.5582ZM40.5725 13.5753C40.1577 13.5753 39.7813 13.4972 39.4432 13.3409C39.1052 13.1818 38.8367 12.9531 38.6378 12.6548C38.439 12.3537 38.3395 11.9901 38.3395 11.5639C38.3395 11.1889 38.4134 10.8849 38.5611 10.652C38.7089 10.4162 38.9063 10.2315 39.1535 10.098C39.4006 9.96449 39.6733 9.86506 39.9716 9.79972C40.2728 9.73153 40.5753 9.67756 40.8793 9.63778C41.277 9.58665 41.5995 9.5483 41.8466 9.52273C42.0966 9.49432 42.2785 9.44744 42.3921 9.3821C42.5086 9.31676 42.5668 9.20312 42.5668 9.04119V9.0071C42.5668 8.58665 42.4518 8.25994 42.2216 8.02699C41.9944 7.79403 41.6492 7.67756 41.1861 7.67756C40.706 7.67756 40.3296 7.78267 40.0569 7.9929C39.7841 8.20312 39.5924 8.42756 39.4816 8.66619L38.527 8.32528C38.6975 7.92756 38.9248 7.6179 39.2089 7.39631C39.4958 7.17187 39.8083 7.01562 40.1464 6.92756C40.4873 6.83665 40.8225 6.79119 41.152 6.79119C41.3623 6.79119 41.6037 6.81676 41.8765 6.8679C42.152 6.91619 42.4177 7.01705 42.6733 7.17045C42.9319 7.32386 43.1464 7.5554 43.3168 7.86506C43.4873 8.17472 43.5725 8.58949 43.5725 9.10938V13.4219H42.5668V12.5355H42.5157C42.4475 12.6776 42.3339 12.8295 42.1748 12.9915C42.0157 13.1534 41.804 13.2912 41.5398 13.4048C41.2756 13.5185 40.9532 13.5753 40.5725 13.5753ZM40.7259 12.6719C41.1236 12.6719 41.4589 12.5938 41.7316 12.4375C42.0072 12.2812 42.2145 12.0795 42.3537 11.8324C42.4958 11.5852 42.5668 11.3253 42.5668 11.0526V10.1321C42.5242 10.1832 42.4305 10.2301 42.2856 10.2727C42.1435 10.3125 41.9787 10.348 41.7912 10.3793C41.6066 10.4077 41.4262 10.4332 41.2501 10.456C41.0768 10.4759 40.9361 10.4929 40.8282 10.5071C40.5668 10.5412 40.3225 10.5966 40.0952 10.6733C39.8708 10.7472 39.689 10.8594 39.5498 11.0099C39.4134 11.1577 39.3452 11.3594 39.3452 11.6151C39.3452 11.9645 39.4745 12.2287 39.733 12.4077C39.9944 12.5838 40.3253 12.6719 40.7259 12.6719ZM45.4081 13.4219V6.87642H46.3797V7.86506H46.4479C46.5672 7.54119 46.7831 7.27841 47.0956 7.0767C47.4081 6.875 47.7604 6.77415 48.1524 6.77415C48.2263 6.77415 48.3186 6.77557 48.4294 6.77841C48.5402 6.78125 48.624 6.78551 48.6808 6.79119V7.81392C48.6467 7.8054 48.5686 7.79261 48.4464 7.77557C48.3271 7.75568 48.2007 7.74574 48.0672 7.74574C47.749 7.74574 47.4649 7.8125 47.2149 7.94602C46.9677 8.0767 46.7717 8.25852 46.6268 8.49148C46.4848 8.72159 46.4138 8.98437 46.4138 9.27983V13.4219H45.4081ZM53.1297 6.87642V7.72869H49.7376V6.87642H53.1297ZM50.7263 5.30824H51.7319V11.5469C51.7319 11.831 51.7731 12.044 51.8555 12.1861C51.9408 12.3253 52.0487 12.419 52.1794 12.4673C52.3129 12.5128 52.4535 12.5355 52.6013 12.5355C52.7121 12.5355 52.803 12.5298 52.874 12.5185C52.945 12.5043 53.0018 12.4929 53.0444 12.4844L53.249 13.3878C53.1808 13.4134 53.0856 13.4389 52.9635 13.4645C52.8413 13.4929 52.6865 13.5071 52.499 13.5071C52.2149 13.5071 51.9365 13.446 51.6638 13.3239C51.3939 13.2017 51.1694 13.0156 50.9905 12.7656C50.8143 12.5156 50.7263 12.2003 50.7263 11.8196V5.30824ZM58.1538 13.4219V4.6946H61.1027C61.7845 4.6946 62.3442 4.81108 62.7817 5.04403C63.2192 5.27415 63.543 5.59091 63.7533 5.99432C63.9635 6.39773 64.0686 6.85653 64.0686 7.37074C64.0686 7.88494 63.9635 8.34091 63.7533 8.73864C63.543 9.13636 63.2206 9.44886 62.7859 9.67614C62.3513 9.90057 61.7959 10.0128 61.1197 10.0128H58.7334V9.05824H61.0856C61.5515 9.05824 61.9265 8.99006 62.2106 8.85369C62.4976 8.71733 62.705 8.52415 62.8328 8.27415C62.9635 8.02131 63.0288 7.72017 63.0288 7.37074C63.0288 7.02131 62.9635 6.71591 62.8328 6.45455C62.7021 6.19318 62.4933 5.99148 62.2064 5.84943C61.9194 5.70455 61.5402 5.6321 61.0686 5.6321H59.2106V13.4219H58.1538ZM62.2618 9.50142L64.4095 13.4219H63.1822L61.0686 9.50142H62.2618ZM67.6194 13.5753C67.2046 13.5753 66.8282 13.4972 66.4901 13.3409C66.152 13.1818 65.8836 12.9531 65.6847 12.6548C65.4858 12.3537 65.3864 11.9901 65.3864 11.5639C65.3864 11.1889 65.4603 10.8849 65.608 10.652C65.7557 10.4162 65.9532 10.2315 66.2003 10.098C66.4475 9.96449 66.7202 9.86506 67.0185 9.79972C67.3197 9.73153 67.6222 9.67756 67.9262 9.63778C68.3239 9.58665 68.6464 9.5483 68.8935 9.52273C69.1435 9.49432 69.3253 9.44744 69.439 9.3821C69.5555 9.31676 69.6137 9.20312 69.6137 9.04119V9.0071C69.6137 8.58665 69.4986 8.25994 69.2685 8.02699C69.0412 7.79403 68.6961 7.67756 68.233 7.67756C67.7529 7.67756 67.3765 7.78267 67.1037 7.9929C66.831 8.20312 66.6393 8.42756 66.5285 8.66619L65.5739 8.32528C65.7444 7.92756 65.9716 7.6179 66.2557 7.39631C66.5427 7.17187 66.8552 7.01562 67.1932 6.92756C67.5341 6.83665 67.8694 6.79119 68.1989 6.79119C68.4091 6.79119 68.6506 6.81676 68.9233 6.8679C69.1989 6.91619 69.4645 7.01705 69.7202 7.17045C69.9787 7.32386 70.1932 7.5554 70.3637 7.86506C70.5341 8.17472 70.6194 8.58949 70.6194 9.10938V13.4219H69.6137V12.5355H69.5626C69.4944 12.6776 69.3807 12.8295 69.2216 12.9915C69.0626 13.1534 68.8509 13.2912 68.5867 13.4048C68.3225 13.5185 68.0001 13.5753 67.6194 13.5753ZM67.7728 12.6719C68.1705 12.6719 68.5057 12.5938 68.7785 12.4375C69.054 12.2812 69.2614 12.0795 69.4006 11.8324C69.5427 11.5852 69.6137 11.3253 69.6137 11.0526V10.1321C69.5711 10.1832 69.4773 10.2301 69.3324 10.2727C69.1904 10.3125 69.0256 10.348 68.8381 10.3793C68.6535 10.4077 68.4731 10.4332 68.2969 10.456C68.1236 10.4759 67.983 10.4929 67.8751 10.5071C67.6137 10.5412 67.3694 10.5966 67.1421 10.6733C66.9177 10.7472 66.7358 10.8594 66.5966 11.0099C66.4603 11.1577 66.3921 11.3594 66.3921 11.6151C66.3921 11.9645 66.5214 12.2287 66.7799 12.4077C67.0412 12.5838 67.3722 12.6719 67.7728 12.6719ZM75.3015 6.87642V7.72869H71.9095V6.87642H75.3015ZM72.8981 5.30824H73.9038V11.5469C73.9038 11.831 73.945 12.044 74.0274 12.1861C74.1126 12.3253 74.2206 12.419 74.3513 12.4673C74.4848 12.5128 74.6254 12.5355 74.7731 12.5355C74.8839 12.5355 74.9748 12.5298 75.0459 12.5185C75.1169 12.5043 75.1737 12.4929 75.2163 12.4844L75.4209 13.3878C75.3527 13.4134 75.2575 13.4389 75.1354 13.4645C75.0132 13.4929 74.8584 13.5071 74.6709 13.5071C74.3868 13.5071 74.1084 13.446 73.8356 13.3239C73.5658 13.2017 73.3413 13.0156 73.1623 12.7656C72.9862 12.5156 72.8981 12.2003 72.8981 11.8196V5.30824ZM79.4883 13.5582C78.8577 13.5582 78.3136 13.419 77.8562 13.1406C77.4017 12.8594 77.0508 12.4673 76.8037 11.9645C76.5594 11.4588 76.4372 10.8707 76.4372 10.2003C76.4372 9.52983 76.5594 8.93892 76.8037 8.42756C77.0508 7.91335 77.3946 7.51278 77.8349 7.22585C78.2781 6.93608 78.7952 6.79119 79.3861 6.79119C79.727 6.79119 80.0636 6.84801 80.396 6.96165C80.7284 7.07528 81.0309 7.25994 81.3037 7.51562C81.5764 7.76847 81.7937 8.10369 81.9557 8.52131C82.1176 8.93892 82.1986 9.45312 82.1986 10.0639V10.4901H77.1531V9.62074H81.1758C81.1758 9.25142 81.102 8.92187 80.9542 8.6321C80.8094 8.34233 80.602 8.11364 80.3321 7.94602C80.065 7.77841 79.7497 7.6946 79.3861 7.6946C78.9855 7.6946 78.6389 7.79403 78.3463 7.9929C78.0565 8.18892 77.8335 8.4446 77.6773 8.75994C77.521 9.07528 77.4429 9.41335 77.4429 9.77415V10.3537C77.4429 10.848 77.5281 11.267 77.6986 11.6108C77.8719 11.9517 78.1119 12.2116 78.4187 12.3906C78.7256 12.5668 79.0821 12.6548 79.4883 12.6548C79.7525 12.6548 79.9912 12.6179 80.2042 12.544C80.4202 12.4673 80.6062 12.3537 80.7625 12.2031C80.9187 12.0497 81.0395 11.8594 81.1247 11.6321L82.0963 11.9048C81.994 12.2344 81.8221 12.5241 81.5807 12.7741C81.3392 13.0213 81.0409 13.2145 80.6858 13.3537C80.3307 13.4901 79.9315 13.5582 79.4883 13.5582Z" fill="black"/>
<defs>
<clipPath id="clip0_1_6644">
<rect width="16" height="16" fill="white" transform="translate(3.83333 1.42188)"/>
</clipPath>
</defs>
</svg>
