<svg width="88" height="19" viewBox="0 0 88 19" fill="none" xmlns="http://www.w3.org/2000/svg">
<path d="M31.5 9.42189L23.5 9.42189M31.5 5.42189L23.5 5.42189M31.5 13.4219L23.5 13.4219M20.8333 9.42189C20.8333 9.79008 20.5349 10.0886 20.1667 10.0886C19.7985 10.0886 19.5 9.79008 19.5 9.42189C19.5 9.0537 19.7985 8.75522 20.1667 8.75522C20.5349 8.75522 20.8333 9.0537 20.8333 9.42189ZM20.8333 5.42189C20.8333 5.79008 20.5349 6.08855 20.1667 6.08855C19.7985 6.08855 19.5 5.79008 19.5 5.42189C19.5 5.0537 19.7985 4.75522 20.1667 4.75522C20.5349 4.75522 20.8333 5.0537 20.8333 5.42189ZM20.8333 13.4219C20.8333 13.7901 20.5349 14.0886 20.1667 14.0886C19.7985 14.0886 19.5 13.7901 19.5 13.4219C19.5 13.0537 19.7985 12.7552 20.1667 12.7552C20.5349 12.7552 20.8333 13.0537 20.8333 13.4219Z" stroke="#717BBC" stroke-width="1.6" stroke-linecap="round" stroke-linejoin="round"/>
<path d="M36.5581 5.6321V4.6946H43.1035V5.6321H40.3592V13.4219H39.3024V5.6321H36.5581ZM46.3081 13.5582C45.7171 13.5582 45.1987 13.4176 44.7527 13.1364C44.3095 12.8551 43.9629 12.4616 43.7129 11.956C43.4657 11.4503 43.3421 10.8594 43.3421 10.1832C43.3421 9.50142 43.4657 8.90625 43.7129 8.39773C43.9629 7.8892 44.3095 7.49432 44.7527 7.21307C45.1987 6.93182 45.7171 6.79119 46.3081 6.79119C46.899 6.79119 47.416 6.93182 47.8592 7.21307C48.3052 7.49432 48.6518 7.8892 48.899 8.39773C49.149 8.90625 49.274 9.50142 49.274 10.1832C49.274 10.8594 49.149 11.4503 48.899 11.956C48.6518 12.4616 48.3052 12.8551 47.8592 13.1364C47.416 13.4176 46.899 13.5582 46.3081 13.5582ZM46.3081 12.6548C46.7569 12.6548 47.1262 12.5398 47.416 12.3097C47.7058 12.0795 47.9203 11.777 48.0595 11.402C48.1987 11.027 48.2683 10.6207 48.2683 10.1832C48.2683 9.74574 48.1987 9.33807 48.0595 8.96023C47.9203 8.58239 47.7058 8.27699 47.416 8.04403C47.1262 7.81108 46.7569 7.6946 46.3081 7.6946C45.8592 7.6946 45.4899 7.81108 45.2001 8.04403C44.9103 8.27699 44.6958 8.58239 44.5566 8.96023C44.4174 9.33807 44.3478 9.74574 44.3478 10.1832C44.3478 10.6207 44.4174 11.027 44.5566 11.402C44.6958 11.777 44.9103 12.0795 45.2001 12.3097C45.4899 12.5398 45.8592 12.6548 46.3081 12.6548ZM54.5591 9.21165V10.1491H50.7409V9.21165H54.5591ZM58.8002 13.5582C58.2548 13.5582 57.7733 13.4205 57.3556 13.1449C56.938 12.8665 56.6113 12.4744 56.3755 11.9688C56.1397 11.4602 56.0218 10.8594 56.0218 10.1662C56.0218 9.47869 56.1397 8.8821 56.3755 8.37642C56.6113 7.87074 56.9394 7.48011 57.3599 7.20455C57.7804 6.92898 58.2662 6.79119 58.8173 6.79119C59.2434 6.79119 59.5801 6.86222 59.8272 7.00426C60.0772 7.14347 60.2676 7.30256 60.3983 7.48153C60.5318 7.65767 60.6355 7.80256 60.7093 7.91619H60.7946V4.6946H61.8002V13.4219H60.8287V12.4162H60.7093C60.6355 12.5355 60.5304 12.6861 60.394 12.8679C60.2576 13.0469 60.063 13.2074 59.8102 13.3494C59.5573 13.4886 59.2207 13.5582 58.8002 13.5582ZM58.9366 12.6548C59.34 12.6548 59.6809 12.5497 59.9593 12.3395C60.2377 12.1264 60.4494 11.8324 60.5943 11.4574C60.7392 11.0795 60.8116 10.6435 60.8116 10.1491C60.8116 9.66051 60.7406 9.23295 60.5985 8.86648C60.4565 8.49716 60.2463 8.21023 59.9679 8.00568C59.6894 7.7983 59.3457 7.6946 58.9366 7.6946C58.5105 7.6946 58.1554 7.80398 57.8713 8.02273C57.59 8.23864 57.3784 8.53267 57.2363 8.90483C57.0971 9.27415 57.0275 9.68892 57.0275 10.1491C57.0275 10.6151 57.0985 11.0384 57.2406 11.419C57.3855 11.7969 57.5985 12.098 57.8798 12.3224C58.1639 12.544 58.5162 12.6548 58.9366 12.6548ZM66.4409 13.5582C65.85 13.5582 65.3315 13.4176 64.8855 13.1364C64.4423 12.8551 64.0957 12.4616 63.8457 11.956C63.5985 11.4503 63.475 10.8594 63.475 10.1832C63.475 9.50142 63.5985 8.90625 63.8457 8.39773C64.0957 7.8892 64.4423 7.49432 64.8855 7.21307C65.3315 6.93182 65.85 6.79119 66.4409 6.79119C67.0318 6.79119 67.5488 6.93182 67.992 7.21307C68.438 7.49432 68.7846 7.8892 69.0318 8.39773C69.2818 8.90625 69.4068 9.50142 69.4068 10.1832C69.4068 10.8594 69.2818 11.4503 69.0318 11.956C68.7846 12.4616 68.438 12.8551 67.992 13.1364C67.5488 13.4176 67.0318 13.5582 66.4409 13.5582ZM66.4409 12.6548C66.8897 12.6548 67.2591 12.5398 67.5488 12.3097C67.8386 12.0795 68.0531 11.777 68.1923 11.402C68.3315 11.027 68.4011 10.6207 68.4011 10.1832C68.4011 9.74574 68.3315 9.33807 68.1923 8.96023C68.0531 8.58239 67.8386 8.27699 67.5488 8.04403C67.2591 7.81108 66.8897 7.6946 66.4409 7.6946C65.992 7.6946 65.6227 7.81108 65.3329 8.04403C65.0431 8.27699 64.8287 8.58239 64.6894 8.96023C64.5502 9.33807 64.4806 9.74574 64.4806 10.1832C64.4806 10.6207 64.5502 11.027 64.6894 11.402C64.8287 11.777 65.0431 12.0795 65.3329 12.3097C65.6227 12.5398 65.992 12.6548 66.4409 12.6548Z" fill="black"/>
</svg>
